<svg width="48" height="48" viewBox="0 0 48 48" fill="none" xmlns="http://www.w3.org/2000/svg">
<rect width="48" height="48" rx="8" fill="#C7C7BC"/>
<path d="M11.9205 24.72C11.9205 20.18 14.3605 17.1 18.1005 17.1C21.8405 17.1 24.3005 20.18 24.3005 24.72C24.3005 29.24 21.9805 32.26 18.1005 32.26C14.2205 32.26 11.9205 29.24 11.9205 24.72ZM14.4405 24.72C14.4405 28.1 15.8005 30 18.1005 30C20.4205 30 21.7805 28.1 21.7805 24.72C21.7805 21.26 20.4205 19.36 18.1005 19.36C15.8005 19.36 14.4405 21.26 14.4405 24.72ZM36.2221 31.98L26.0821 32V30.08L30.8621 26.04C32.8421 24.36 33.5021 23.4 33.5021 22C33.5021 20.34 32.6021 19.4 31.0621 19.4C29.4621 19.4 28.4621 20.52 28.4421 22.4H25.9021C25.9221 19.2 27.9621 17.12 31.0621 17.12C34.1821 17.12 36.1221 18.9 36.1221 21.86C36.1221 23.9 35.0021 25.44 32.7821 27.34L30.1421 29.6H36.2221V31.98Z" fill="#022D42"/>
</svg>
