<svg width="48" height="48" viewBox="0 0 48 48" fill="none" xmlns="http://www.w3.org/2000/svg">
<rect width="48" height="48" rx="8" fill="#C7C7BC"/>
<path d="M12.1452 24.72C12.1452 20.18 14.5852 17.1 18.3252 17.1C22.0652 17.1 24.5252 20.18 24.5252 24.72C24.5252 29.24 22.2052 32.26 18.3252 32.26C14.4452 32.26 12.1452 29.24 12.1452 24.72ZM14.6652 24.72C14.6652 28.1 16.0252 30 18.3252 30C20.6452 30 22.0052 28.1 22.0052 24.72C22.0052 21.26 20.6452 19.36 18.3252 19.36C16.0252 19.36 14.6652 21.26 14.6652 24.72ZM30.5081 24.76H28.7281V23.1L32.4881 19.64H26.4081V17.38H35.6881V19.42L32.1281 22.7C34.3681 23.14 36.1081 24.78 36.1081 27.36C36.1081 30.36 33.7681 32.26 30.8081 32.26C27.9481 32.26 25.7281 30.5 25.7281 27.34H28.2481C28.2481 29.02 29.2881 29.98 30.8481 29.98C32.4481 29.98 33.5081 28.94 33.5081 27.32C33.5081 25.84 32.5481 24.76 30.5081 24.76Z" fill="#022D42"/>
</svg>
