<svg width="24" height="25" viewBox="0 0 24 25" fill="none" xmlns="http://www.w3.org/2000/svg">
<path fill-rule="evenodd" clip-rule="evenodd" d="M12.8812 4.32446C13.3678 4.81112 13.3678 5.60014 12.8812 6.08679L6.00848 12.9595L12.8812 19.8322C13.3678 20.3188 13.3678 21.1078 12.8812 21.5945C12.3945 22.0811 11.6055 22.0811 11.1188 21.5945L3.36499 13.8406C2.87834 13.354 2.87834 12.565 3.36499 12.0783L11.1188 4.32446C11.6055 3.83781 12.3945 3.83781 12.8812 4.32446Z" fill="#022D42"/>
<path fill-rule="evenodd" clip-rule="evenodd" d="M3 12.9595C3 12.2712 3.55792 11.7133 4.24615 11.7133H19.7538C20.4421 11.7133 21 12.2712 21 12.9595C21 13.6477 20.4421 14.2056 19.7538 14.2056H4.24615C3.55792 14.2056 3 13.6477 3 12.9595Z" fill="#022D42"/>
</svg>
