<svg width="38" height="39" viewBox="0 0 38 39" fill="none" xmlns="http://www.w3.org/2000/svg">
<rect y="0.5" width="38" height="38" rx="8" fill="#ECFFB7"/>
<g clip-path="url(#clip0_327_558)">
<path d="M13.656 15.9346H9.64094C9.46275 15.9346 9.31836 16.079 9.31836 16.2572V29.1557C9.31836 29.3339 9.46275 29.4783 9.64094 29.4783H13.656C13.8342 29.4783 13.9786 29.3339 13.9786 29.1557V16.2572C13.9786 16.079 13.8342 15.9346 13.656 15.9346Z" fill="#022D42"/>
<path d="M11.6494 9.52246C10.1885 9.52246 9 10.7097 9 12.169C9 13.6289 10.1885 14.8166 11.6494 14.8166C13.1092 14.8166 14.2967 13.6288 14.2967 12.169C14.2968 10.7097 13.1092 9.52246 11.6494 9.52246Z" fill="#022D42"/>
<path d="M23.8675 15.6143C22.255 15.6143 21.0629 16.3075 20.3399 17.0952V16.2574C20.3399 16.0793 20.1955 15.9348 20.0173 15.9348H16.1722C15.994 15.9348 15.8496 16.0793 15.8496 16.2574V29.156C15.8496 29.3342 15.994 29.4786 16.1722 29.4786H20.1784C20.3566 29.4786 20.501 29.3342 20.501 29.156V22.7742C20.501 20.6237 21.0852 19.7859 22.5843 19.7859C24.2169 19.7859 24.3466 21.129 24.3466 22.8848V29.1561C24.3466 29.3343 24.491 29.4786 24.6692 29.4786H28.677C28.8552 29.4786 28.9995 29.3343 28.9995 29.1561V22.081C28.9995 18.8832 28.3898 15.6143 23.8675 15.6143Z" fill="#022D42"/>
</g>
<defs>
<clipPath id="clip0_327_558">
<rect width="20" height="20" fill="white" transform="translate(9 9.5)"/>
</clipPath>
</defs>
</svg>
