<svg width="28" height="28" viewBox="0 0 28 28" fill="none" xmlns="http://www.w3.org/2000/svg">
<rect width="28" height="28" rx="4" fill="#ECFFB7"/>
<path fill-rule="evenodd" clip-rule="evenodd" d="M13.3333 7.25C9.9736 7.25 7.25 9.9736 7.25 13.3333C7.25 16.6931 9.9736 19.4167 13.3333 19.4167C14.743 19.4167 16.0407 18.9372 17.0722 18.1324L19.4701 20.5303C19.763 20.8232 20.2379 20.8232 20.5308 20.5303C20.8237 20.2374 20.8237 19.7625 20.5308 19.4696L18.1328 17.0717C18.9373 16.0403 19.4167 14.7428 19.4167 13.3333C19.4167 9.9736 16.6931 7.25 13.3333 7.25ZM8.75 13.3333C8.75 10.802 10.802 8.75 13.3333 8.75C15.8646 8.75 17.9167 10.802 17.9167 13.3333C17.9167 15.8646 15.8646 17.9167 13.3333 17.9167C10.802 17.9167 8.75 15.8646 8.75 13.3333Z" fill="#022D42"/>
</svg>
