<svg width="16" height="16" viewBox="0 0 16 16" fill="none" xmlns="http://www.w3.org/2000/svg">
<path fill-rule="evenodd" clip-rule="evenodd" d="M12.5189 1C11.8607 0.999918 11.2295 1.26129 10.764 1.72662L9.45576 3.0352C9.43208 3.05351 9.4093 3.07352 9.38758 3.09524C9.36582 3.117 9.34578 3.13983 9.32744 3.16355L2.36706 10.1255L2.36664 10.1259C2.13858 10.3534 1.96992 10.6335 1.87548 10.9415L1.8749 10.9434L1.04369 13.6818L1.04281 13.6847C0.989958 13.8616 0.985967 14.0495 1.03126 14.2284C1.07655 14.4073 1.16944 14.5707 1.30006 14.7011C1.43069 14.8315 1.59418 14.9241 1.77319 14.9691C1.9522 15.0141 2.14006 15.0099 2.31684 14.9567L2.31848 14.9562L5.05806 14.1255C5.36596 14.0318 5.64617 13.864 5.87409 13.6368L12.834 6.67593C12.8589 6.65691 12.8828 6.63601 12.9056 6.61324C12.9284 6.59044 12.9493 6.56647 12.9683 6.54153L14.2731 5.23657C14.7386 4.77124 15.0001 4.14006 15.0002 3.4819C15.0003 2.82374 14.7389 2.19251 14.2735 1.72706C13.8082 1.26161 13.177 1.00008 12.5189 1ZM12.4005 5.10709L13.272 4.23545C13.4719 4.03559 13.5844 3.7644 13.5844 3.48173C13.5844 3.19905 13.4722 2.92794 13.2723 2.72803C13.0725 2.52812 12.8014 2.41579 12.5187 2.41576C12.2361 2.41572 11.9649 2.52806 11.765 2.72784L10.8932 3.59981L12.4005 5.10709ZM9.89226 4.60101L3.36668 11.1281C3.30296 11.1916 3.25578 11.2698 3.22928 11.3558L3.22904 11.3565L2.61253 13.3876L4.6461 12.771L4.64659 12.7708C4.73239 12.7446 4.81055 12.6979 4.87415 12.6346L4.87459 12.6342L11.3995 6.10826L9.89226 4.60101Z" fill="#022D42"/>
</svg>
