<svg width="40" height="41" viewBox="0 0 40 41" fill="none" xmlns="http://www.w3.org/2000/svg">
<rect y="0.660889" width="40" height="40" rx="8" fill="#ECFFB7"/>
<path d="M23.1991 16.2948C23.6775 16.7732 23.6775 17.5488 23.1991 18.0272L18.5324 22.6939C18.0541 23.1723 17.2784 23.1723 16.8 22.6939L14.4667 20.3606C13.9883 19.8822 13.9883 19.1066 14.4667 18.6282C14.9451 18.1498 15.7207 18.1498 16.1991 18.6282L17.6662 20.0953L21.4667 16.2948C21.9451 15.8164 22.7207 15.8164 23.1991 16.2948Z" fill="#022D42"/>
<path fill-rule="evenodd" clip-rule="evenodd" d="M8.27344 19.4944C8.27344 13.6632 13.0006 8.93604 18.8318 8.93604C24.663 8.93604 29.3901 13.6632 29.3901 19.4944C29.3901 21.9684 28.5392 24.2436 27.1141 26.0434L31.3654 30.2948C31.8438 30.7732 31.8438 31.5488 31.3654 32.0272C30.887 32.5056 30.1114 32.5056 29.633 32.0272L25.3818 27.7759C23.5818 29.2015 21.3062 30.0527 18.8318 30.0527C13.0006 30.0527 8.27344 25.3256 8.27344 19.4944ZM18.8318 11.386C14.3537 11.386 10.7234 15.0163 10.7234 19.4944C10.7234 23.9725 14.3537 27.6027 18.8318 27.6027C23.3099 27.6027 26.9401 23.9725 26.9401 19.4944C26.9401 15.0163 23.3099 11.386 18.8318 11.386Z" fill="#022D42"/>
</svg>
