<svg width="40" height="41" viewBox="0 0 40 41" fill="none" xmlns="http://www.w3.org/2000/svg">
<rect y="0.660889" width="40" height="40" rx="8" fill="#ECFFB7"/>
<path fill-rule="evenodd" clip-rule="evenodd" d="M19.9996 20.6901C20.6278 20.6901 21.1371 21.1994 21.1371 21.8276V32.3276C21.1371 32.9559 20.6278 33.4651 19.9996 33.4651C19.3714 33.4651 18.8621 32.9559 18.8621 32.3276V21.8276C18.8621 21.1994 19.3714 20.6901 19.9996 20.6901Z" fill="#022D42"/>
<path d="M11.7746 21.7985C11.7746 21.1703 11.2653 20.661 10.6371 20.661C10.0089 20.661 9.49958 21.1703 9.49958 21.7985V26.313C9.49904 26.9615 9.67662 27.5978 10.013 28.1523C10.3494 28.707 10.8318 29.1586 11.4075 29.4578L11.4126 29.4604L18.4104 33.0526C18.8924 33.3026 19.4274 33.433 19.9704 33.433C20.0684 33.433 19.9016 33.433 19.9996 33.433C20.5426 33.433 21.0776 33.3026 21.5596 33.0526L28.5574 29.4604L28.5625 29.4578C29.1382 29.1586 29.6206 28.707 29.957 28.1523C30.2934 27.5978 30.471 26.9615 30.4704 26.313V21.7985C30.4704 21.1703 29.9611 20.661 29.3329 20.661C28.7047 20.661 28.1954 21.1703 28.1954 21.7985L28.1954 26.3147C28.1957 26.5466 28.1322 26.7741 28.0119 26.9724C27.892 27.1701 27.7203 27.3311 27.5155 27.438L20.5134 31.0325C20.3547 31.1149 20.1784 31.158 19.9996 31.158C19.9016 31.158 20.0684 31.158 19.9704 31.158C19.7916 31.158 19.6153 31.1149 19.4566 31.0325L12.4545 27.438C12.2497 27.3311 12.078 27.1701 11.9581 26.9724C11.8378 26.7741 11.7743 26.5466 11.7746 26.3147L11.7746 21.7985Z" fill="#022D42"/>
<path fill-rule="evenodd" clip-rule="evenodd" d="M24.2543 10.2314L24.253 10.2322L10.0595 18.2328C9.88799 18.3299 9.74483 18.471 9.64552 18.6412C9.54613 18.8116 9.49375 19.0054 9.49375 19.2026C9.49375 19.3999 9.54613 19.5936 9.64552 19.764C9.74492 19.9344 9.88778 20.0754 10.0595 20.1725L14.9355 22.9254L14.9398 22.9279C15.0596 22.9962 15.1951 23.0321 15.3329 23.0321C15.4708 23.0321 15.6062 22.9962 15.726 22.9279L15.7314 22.9248L29.9397 14.9225L29.9406 14.922C30.1119 14.8249 30.2544 14.6841 30.3536 14.514C30.453 14.3436 30.5054 14.1499 30.5054 13.9526C30.5054 13.7554 30.453 13.5616 30.3536 13.3912C30.2545 13.2212 30.1121 13.0806 29.9409 12.9835L29.9397 12.9828L25.0445 10.2322L25.0437 10.2317C24.9229 10.1644 24.787 10.129 24.6488 10.129C24.5107 10.129 24.3749 10.1643 24.2543 10.2314ZM23.1428 8.24646C23.603 7.98914 24.1215 7.85404 24.6488 7.85404C25.176 7.85404 25.6945 7.98914 26.1547 8.24646L26.1568 8.24764L31.0595 11.0025C31.5818 11.2979 32.0164 11.7266 32.3187 12.2449C32.6211 12.7633 32.7804 13.3526 32.7804 13.9526C32.7804 14.5527 32.6211 15.142 32.3187 15.6603C32.0164 16.1787 31.5818 16.6074 31.0595 16.9028L16.8532 24.904L16.8502 24.9058C16.3878 25.1688 15.8649 25.3071 15.3329 25.3071C14.8007 25.3071 14.2777 25.1687 13.8152 24.9055L13.8127 24.904L8.94034 22.1532C8.418 21.8578 7.98278 21.4287 7.68043 20.9103C7.37807 20.392 7.21875 19.8027 7.21875 19.2026C7.21875 18.6026 7.37807 18.0133 7.68043 17.4949C7.98278 16.9766 8.41734 16.5479 8.93967 16.2525L23.1394 8.24839L23.1428 8.24646Z" fill="#022D42"/>
<path fill-rule="evenodd" clip-rule="evenodd" d="M13.8378 8.23854C14.2985 7.97552 14.8199 7.83716 15.3504 7.83716C15.881 7.83716 16.4024 7.97553 16.8631 8.23859L16.8665 8.24054L31.0588 16.2521C31.5811 16.5474 32.0164 16.9766 32.3187 17.4949C32.6211 18.0133 32.7804 18.6026 32.7804 19.2026C32.7804 19.8027 32.6211 20.392 32.3187 20.9103C32.0164 21.4287 31.5818 21.8574 31.0595 22.1528L26.1731 24.905C25.7125 25.1685 25.1911 25.3072 24.6604 25.3072C24.1297 25.3072 23.6082 25.1685 23.1476 24.905L8.93967 16.9028C8.41734 16.6074 7.98278 16.1787 7.68043 15.6603C7.37807 15.142 7.21875 14.5527 7.21875 13.9526C7.21875 13.3526 7.37807 12.7633 7.68043 12.2449C7.98278 11.7266 8.41734 11.2979 8.93967 11.0025L13.8378 8.23854ZM15.3504 10.1122C15.2152 10.1122 15.0822 10.1475 14.9649 10.2147L14.9586 10.2183L10.0595 12.9828C9.88793 13.0799 9.74485 13.221 9.64552 13.3912C9.54613 13.5616 9.49375 13.7554 9.49375 13.9526C9.49375 14.1499 9.54613 14.3436 9.64552 14.514C9.74478 14.6842 9.88736 14.825 10.0587 14.9221L24.2763 22.9296C24.3932 22.9968 24.5256 23.0322 24.6604 23.0322C24.7952 23.0322 24.9277 22.9968 25.0446 22.9297L25.053 22.9248L29.9397 20.1725C30.1111 20.0754 30.2544 19.9342 30.3536 19.764C30.453 19.5936 30.5054 19.3999 30.5054 19.2026C30.5054 19.0054 30.453 18.8116 30.3536 18.6412C30.2543 18.471 30.1116 18.3301 29.94 18.233L15.736 10.2148C15.6186 10.1475 15.4857 10.1122 15.3504 10.1122Z" fill="#022D42"/>
</svg>
