<svg width="40" height="41" viewBox="0 0 40 41" fill="none" xmlns="http://www.w3.org/2000/svg">
<rect y="0.661133" width="40" height="40" rx="8" fill="#ECFFB7"/>
<path fill-rule="evenodd" clip-rule="evenodd" d="M12.9998 7.90039C12.0909 7.90039 11.2192 8.26146 10.5765 8.90416C9.93382 9.54686 9.57275 10.4186 9.57275 11.3275V14.8275C9.57275 15.4315 10.0624 15.9212 10.6665 15.9212C11.2706 15.9212 11.7603 15.4315 11.7603 14.8275V11.3275C11.7603 10.9987 11.8909 10.6834 12.1233 10.451C12.3558 10.2185 12.6711 10.0879 12.9998 10.0879H21.2383V13.6608C21.2383 14.5697 21.5993 15.4414 22.2421 16.0841C22.8848 16.7268 23.7564 17.0879 24.6654 17.0879H28.2394V29.9941C28.2394 30.3229 28.1088 30.6382 27.8764 30.8707C27.6439 31.1031 27.3286 31.2337 26.9998 31.2337H19.9998C19.3958 31.2337 18.9061 31.7234 18.9061 32.3275C18.9061 32.9315 19.3958 33.4212 19.9998 33.4212H26.9998C27.9088 33.4212 28.7804 33.0602 29.4232 32.4175C30.0659 31.7747 30.4269 30.9031 30.4269 29.9941V14.8275C30.4269 14.5374 30.3117 14.2592 30.1066 14.0541L24.2732 8.22074C24.0681 8.01562 23.7899 7.90039 23.4998 7.90039H12.9998ZM23.4258 10.4669V13.6608C23.4258 13.9896 23.5564 14.3049 23.7888 14.5373C24.0213 14.7698 24.3366 14.9004 24.6654 14.9004H27.8593L23.4258 10.4669Z" fill="#022D42"/>
<path fill-rule="evenodd" clip-rule="evenodd" d="M8.58376 19.7459C9.44526 18.8844 10.6137 18.4004 11.832 18.4004C12.4353 18.4004 13.0326 18.5192 13.59 18.7501C14.1473 18.9809 14.6537 19.3193 15.0803 19.7459C15.5069 20.1724 15.8452 20.6788 16.0761 21.2362C16.307 21.7935 16.4258 22.3909 16.4258 22.9941C16.4258 23.5974 16.307 24.1948 16.0761 24.7521C15.8855 25.2122 15.6217 25.6376 15.2954 26.012L16.4082 32.1322C16.4773 32.5124 16.3406 32.9009 16.0487 33.1541C15.7567 33.4073 15.3528 33.4876 14.9862 33.3654L11.8321 32.3141L8.67793 33.3654C8.3113 33.4876 7.90738 33.4073 7.61543 33.1541C7.32347 32.9009 7.18681 32.5124 7.25595 32.1322L8.36869 26.0121C7.64214 25.1783 7.23828 24.1071 7.23828 22.9941C7.23828 21.7758 7.72226 20.6074 8.58376 19.7459ZM10.3502 27.3423L9.7386 30.706L11.4862 30.1235C11.7107 30.0487 11.9534 30.0487 12.1779 30.1235L13.9255 30.706L13.3139 27.3423C12.8374 27.5047 12.3368 27.5879 11.832 27.5879C11.3231 27.5879 10.8229 27.5034 10.3502 27.3423ZM11.832 20.5879C11.1939 20.5879 10.5818 20.8414 10.1306 21.2927C9.6793 21.7439 9.42578 22.356 9.42578 22.9941C9.42578 23.6323 9.6793 24.2444 10.1306 24.6956C10.5818 25.1469 11.1939 25.4004 11.832 25.4004C12.148 25.4004 12.4609 25.3382 12.7529 25.2172C13.0448 25.0963 13.3101 24.9191 13.5335 24.6956C13.7569 24.4722 13.9342 24.2069 14.0551 23.915C14.176 23.623 14.2383 23.3101 14.2383 22.9941C14.2383 22.6781 14.176 22.3652 14.0551 22.0733C13.9342 21.7814 13.7569 21.5161 13.5335 21.2927C13.3101 21.0692 13.0448 20.892 12.7529 20.7711C12.4609 20.6501 12.148 20.5879 11.832 20.5879Z" fill="#022D42"/>
</svg>
