<svg width="1383" height="393" viewBox="0 0 1383 393" fill="none" xmlns="http://www.w3.org/2000/svg">
<g clip-path="url(#clip0_318_14)">
<g clip-path="url(#clip1_318_14)">
<path d="M350.403 0H43.2988C19.4745 0 0.161133 19.2948 0.161133 43.0961V349.904C0.161133 373.705 19.4745 393 43.2988 393H350.403C374.227 393 393.54 373.705 393.54 349.904V43.0961C393.54 19.2948 374.227 0 350.403 0Z" fill="#ECFFB7"/>
<path d="M308.123 99H280.665C277.087 99 274.159 101.99 274.159 105.565V132.086C274.159 135.661 271.231 138.586 267.653 138.586H241.887C238.308 138.456 235.381 141.381 235.381 145.021V170.697C235.381 174.272 238.308 177.197 241.887 177.197L267.783 177.327C271.361 177.327 274.289 180.252 274.289 183.827V249.934C274.289 253.509 271.361 256.434 267.783 256.434L183.394 256.304C179.816 256.304 176.888 259.229 176.888 262.804V288.48C176.888 292.055 179.816 294.98 183.394 294.98H288.733C303.113 294.98 314.759 283.345 314.759 265.534V105.5C314.759 101.925 311.766 99 308.188 99H308.123Z" fill="#022D42"/>
<path d="M209.941 99.13H183.915C180.336 99.13 177.408 102.055 177.408 105.63V132.151C177.408 135.726 174.48 138.651 170.902 138.651H105.187C90.8077 138.651 79.1611 150.286 79.1611 164.652V269.174C79.1611 283.54 90.8077 295.175 105.187 295.175H151.968C155.547 295.175 158.475 292.25 158.475 288.675V262.999C158.475 259.424 155.547 256.499 151.968 256.499H123.991C120.412 256.499 117.484 253.574 117.484 249.934L117.744 184.217C117.744 180.642 120.672 177.782 124.251 177.717L209.876 177.522C213.454 177.522 216.382 174.597 216.382 171.022V105.63C216.382 102.055 213.454 99.13 209.876 99.13H209.941Z" fill="#022D42"/>
<path d="M212.088 197.088H181.768C179.36 197.088 177.408 199.037 177.408 201.443V231.733C177.408 234.139 179.36 236.089 181.768 236.089H212.088C214.495 236.089 216.447 234.139 216.447 231.733V201.443C216.447 199.037 214.495 197.088 212.088 197.088Z" fill="#022D42"/>
</g>
<g clip-path="url(#clip2_318_14)">
<path d="M503.749 176.149C496.154 176.149 490.01 173.845 485.317 169.237C480.709 164.629 478.405 158.57 478.405 151.061V136.469C478.405 131.264 479.514 126.698 481.733 122.773C483.951 118.762 487.066 115.69 491.077 113.557C495.087 111.338 499.738 110.229 505.029 110.229H512.069C514.543 110.229 517.061 110.784 519.621 111.893C522.181 112.917 524.314 114.325 526.021 116.117V85.525H543.429V175.125H527.301V166.677C525.594 169.493 523.29 171.797 520.389 173.589C517.487 175.296 514.458 176.149 511.301 176.149H503.749ZM513.221 161.173C516.719 161.173 519.621 159.936 521.925 157.461C524.314 154.901 525.679 151.53 526.021 147.349V136.213C525.423 132.885 524.101 130.24 522.053 128.277C520.09 126.229 517.743 125.205 515.013 125.205H507.205C503.791 125.205 501.018 126.357 498.885 128.661C496.837 130.965 495.813 133.994 495.813 137.749V149.781C495.813 153.194 496.751 155.968 498.629 158.101C500.506 160.149 502.938 161.173 505.925 161.173H513.221Z" fill="#022D42"/>
<path d="M585.607 176.149C580.231 176.149 575.452 175.168 571.271 173.205C567.175 171.157 563.975 168.341 561.671 164.757C559.367 161.088 558.215 156.906 558.215 152.213V135.701C558.215 130.666 559.367 126.229 561.671 122.389C563.975 118.549 567.175 115.562 571.271 113.429C575.452 111.296 580.231 110.229 585.607 110.229H595.847C604.039 110.229 610.609 112.533 615.559 117.141C620.508 121.749 622.983 127.893 622.983 135.573V149.141H575.623V152.213C575.623 155.029 576.519 157.29 578.311 158.997C580.103 160.704 582.535 161.557 585.607 161.557H595.591C598.577 161.557 600.967 160.917 602.759 159.637C604.636 158.272 605.575 156.522 605.575 154.389H622.727C622.727 158.656 621.575 162.453 619.271 165.781C616.967 169.109 613.724 171.669 609.543 173.461C605.447 175.253 600.711 176.149 595.335 176.149H585.607ZM605.831 136.597V135.573C605.831 132.245 604.935 129.6 603.143 127.637C601.351 125.589 598.961 124.565 595.975 124.565H585.607C582.535 124.565 580.06 125.632 578.183 127.765C576.305 129.898 575.367 132.714 575.367 136.213V136.597H605.831Z" fill="#022D42"/>
<path d="M659.991 176.149C652.225 176.149 645.996 174.101 641.303 170.005C636.609 165.909 634.263 160.533 634.263 153.877H651.415C651.415 156.181 652.183 158.058 653.719 159.509C655.34 160.874 657.431 161.557 659.991 161.557H671.511C676.631 161.557 679.191 160.149 679.191 157.333V155.157C679.191 154.304 678.764 153.536 677.911 152.853C677.057 152.085 675.905 151.573 674.455 151.317L652.311 147.477C647.105 146.624 642.967 144.789 639.895 141.973C636.908 139.072 635.415 135.701 635.415 131.861V127.637C635.415 122.176 637.633 117.909 642.071 114.837C646.593 111.765 652.865 110.229 660.887 110.229H670.871C678.039 110.229 683.799 112.149 688.151 115.989C692.588 119.744 694.807 124.736 694.807 130.965H677.655C677.655 129.088 677.015 127.594 675.735 126.485C674.54 125.376 672.919 124.821 670.871 124.821H661.143C655.596 124.821 652.823 126.101 652.823 128.661V130.709C652.823 131.648 653.164 132.458 653.847 133.141C654.615 133.738 655.681 134.165 657.047 134.421L680.343 138.645C685.207 139.498 689.132 141.333 692.119 144.149C695.105 146.88 696.599 149.994 696.599 153.493V158.101C696.599 163.648 694.295 168.042 689.687 171.285C685.164 174.528 679.105 176.149 671.511 176.149H659.991Z" fill="#022D42"/>
<path d="M737.299 175.125C729.789 175.125 724.285 173.418 720.787 170.005C717.288 166.592 715.539 161.301 715.539 154.133V126.101H704.275V111.253H716.051V91.925H732.947V111.253H749.587V126.101H732.947V153.365C732.947 155.754 733.373 157.504 734.227 158.613C735.165 159.722 736.616 160.277 738.579 160.277H749.587V175.125H737.299Z" fill="#022D42"/>
<path d="M764.455 111.253H780.583V119.445C782.204 116.97 784.508 114.965 787.495 113.429C790.567 111.808 793.767 110.997 797.095 110.997H805.799V126.101H797.095C792.572 126.101 788.903 127.466 786.087 130.197C783.271 132.928 781.863 136.426 781.863 140.693V175.125H764.455V111.253Z" fill="#022D42"/>
<path d="M837.647 176.149C830.905 176.149 825.487 173.888 821.391 169.365C817.295 164.757 815.247 158.741 815.247 151.317V111.253H832.655V151.573C832.655 154.389 833.337 156.693 834.703 158.485C836.153 160.192 838.031 161.045 840.335 161.045H847.759C850.575 161.045 853.135 159.893 855.439 157.589C857.743 155.2 859.364 152.085 860.303 148.245V111.253H877.711V175.125H861.583V166.933C859.62 169.664 857.188 171.882 854.287 173.589C851.471 175.296 848.74 176.149 846.095 176.149H837.647Z" fill="#022D42"/>
<path d="M919.779 176.149C914.403 176.149 909.624 175.082 905.443 172.949C901.347 170.816 898.147 167.829 895.843 163.989C893.624 160.149 892.515 155.712 892.515 150.677V135.701C892.515 130.666 893.624 126.229 895.843 122.389C898.147 118.549 901.347 115.562 905.443 113.429C909.539 111.296 914.275 110.229 919.651 110.229H929.763C934.883 110.229 939.405 111.253 943.331 113.301C947.256 115.349 950.285 118.25 952.419 122.005C954.552 125.674 955.619 129.941 955.619 134.805H938.339C938.339 131.904 937.528 129.6 935.907 127.893C934.371 126.101 932.323 125.205 929.763 125.205H919.907C916.92 125.205 914.488 126.314 912.611 128.533C910.819 130.666 909.923 133.482 909.923 136.981V149.397C909.923 152.896 910.861 155.754 912.739 157.973C914.616 160.106 917.048 161.173 920.035 161.173H929.891C932.621 161.173 934.797 160.192 936.419 158.229C938.125 156.266 938.979 153.664 938.979 150.421H956.259C956.259 158.186 953.827 164.416 948.963 169.109C944.184 173.802 937.827 176.149 929.891 176.149H919.779Z" fill="#022D42"/>
<path d="M996.664 175.125C989.154 175.125 983.65 173.418 980.152 170.005C976.653 166.592 974.904 161.301 974.904 154.133V126.101H963.64V111.253H975.416V91.925H992.312V111.253H1008.95V126.101H992.312V153.365C992.312 155.754 992.738 157.504 993.592 158.613C994.53 159.722 995.981 160.277 997.944 160.277H1008.95V175.125H996.664Z" fill="#022D42"/>
<path d="M1034.83 105.237C1031.5 105.237 1028.81 104.298 1026.76 102.421C1024.8 100.458 1023.82 97.8983 1023.82 94.741C1023.82 91.5837 1024.8 89.0663 1026.76 87.189C1028.81 85.2263 1031.5 84.245 1034.83 84.245C1038.16 84.245 1040.8 85.2263 1042.76 87.189C1044.81 89.0663 1045.84 91.5837 1045.84 94.741C1045.84 97.8983 1044.81 100.458 1042.76 102.421C1040.8 104.298 1038.16 105.237 1034.83 105.237ZM1026.12 111.253H1043.53V175.125H1026.12V111.253Z" fill="#022D42"/>
<path d="M1087.96 176.149C1082.58 176.149 1077.8 175.125 1073.62 173.077C1069.53 170.944 1066.33 167.957 1064.02 164.117C1061.8 160.277 1060.69 155.84 1060.69 150.805V135.829C1060.69 130.794 1061.85 126.357 1064.15 122.517C1066.45 118.592 1069.65 115.562 1073.75 113.429C1077.93 111.296 1082.71 110.229 1088.09 110.229H1099.61C1104.98 110.229 1109.72 111.296 1113.81 113.429C1118 115.562 1121.24 118.592 1123.54 122.517C1125.85 126.357 1127 130.794 1127 135.829V150.805C1127 155.84 1125.85 160.277 1123.54 164.117C1121.24 167.957 1118 170.944 1113.81 173.077C1109.72 175.125 1104.94 176.149 1099.48 176.149H1087.96ZM1099.22 161.173C1102.38 161.173 1104.9 160.106 1106.77 157.973C1108.65 155.754 1109.59 152.896 1109.59 149.397V136.981C1109.59 133.482 1108.65 130.666 1106.77 128.533C1104.9 126.314 1102.42 125.205 1099.35 125.205H1088.34C1085.27 125.205 1082.8 126.314 1080.92 128.533C1079.04 130.666 1078.1 133.482 1078.1 136.981V149.397C1078.1 152.896 1079.04 155.754 1080.92 157.973C1082.8 160.106 1085.23 161.173 1088.21 161.173H1099.22Z" fill="#022D42"/>
<path d="M1141.81 111.253H1157.94V118.933C1159.82 116.288 1162.25 114.197 1165.24 112.661C1168.23 111.04 1171.21 110.229 1174.2 110.229H1181.88C1188.71 110.229 1194.17 112.362 1198.26 116.629C1202.44 120.896 1204.53 126.528 1204.53 133.525V175.125H1187.13V134.165C1187.13 131.52 1186.4 129.386 1184.95 127.765C1183.59 126.144 1181.79 125.333 1179.57 125.333H1171.89C1168.91 125.333 1166.22 126.442 1163.83 128.661C1161.53 130.794 1159.99 133.61 1159.22 137.109V175.125H1141.81V111.253Z" fill="#022D42"/>
<path d="M1285.39 176.149C1280.02 176.149 1275.24 175.168 1271.06 173.205C1266.96 171.157 1263.76 168.341 1261.46 164.757C1259.15 161.088 1258 156.906 1258 152.213V135.701C1258 130.666 1259.15 126.229 1261.46 122.389C1263.76 118.549 1266.96 115.562 1271.06 113.429C1275.24 111.296 1280.02 110.229 1285.39 110.229H1295.63C1303.82 110.229 1310.39 112.533 1315.34 117.141C1320.29 121.749 1322.77 127.893 1322.77 135.573V149.141H1275.41V152.213C1275.41 155.029 1276.3 157.29 1278.1 158.997C1279.89 160.704 1282.32 161.557 1285.39 161.557H1295.38C1298.36 161.557 1300.75 160.917 1302.54 159.637C1304.42 158.272 1305.36 156.522 1305.36 154.389H1322.51C1322.51 158.656 1321.36 162.453 1319.06 165.781C1316.75 169.109 1313.51 171.669 1309.33 173.461C1305.23 175.253 1300.5 176.149 1295.12 176.149H1285.39ZM1305.62 136.597V135.573C1305.62 132.245 1304.72 129.6 1302.93 127.637C1301.14 125.589 1298.75 124.565 1295.76 124.565H1285.39C1282.32 124.565 1279.85 125.632 1277.97 127.765C1276.09 129.898 1275.15 132.714 1275.15 136.213V136.597H1305.62Z" fill="#022D42"/>
<path d="M1364.27 175.125C1356.76 175.125 1351.26 173.418 1347.76 170.005C1344.26 166.592 1342.51 161.301 1342.51 154.133V126.101H1331.25V111.253H1343.03V91.925H1359.92V111.253H1376.56V126.101H1359.92V153.365C1359.92 155.754 1360.35 157.504 1361.2 158.613C1362.14 159.722 1363.59 160.277 1365.55 160.277H1376.56V175.125H1364.27Z" fill="#022D42"/>
<path d="M503.749 304.149C496.154 304.149 490.01 301.845 485.317 297.237C480.709 292.629 478.405 286.57 478.405 279.061V264.469C478.405 259.264 479.514 254.698 481.733 250.773C483.951 246.762 487.066 243.69 491.077 241.557C495.087 239.338 499.738 238.229 505.029 238.229H512.069C514.543 238.229 517.061 238.784 519.621 239.893C522.181 240.917 524.314 242.325 526.021 244.117V213.525H543.429V303.125H527.301V294.677C525.594 297.493 523.29 299.797 520.389 301.589C517.487 303.296 514.458 304.149 511.301 304.149H503.749ZM513.221 289.173C516.719 289.173 519.621 287.936 521.925 285.461C524.314 282.901 525.679 279.53 526.021 275.349V264.213C525.423 260.885 524.101 258.24 522.053 256.277C520.09 254.229 517.743 253.205 515.013 253.205H507.205C503.791 253.205 501.018 254.357 498.885 256.661C496.837 258.965 495.813 261.994 495.813 265.749V277.781C495.813 281.194 496.751 283.968 498.629 286.101C500.506 288.149 502.938 289.173 505.925 289.173H513.221Z" fill="#022D42"/>
<path d="M570.503 233.237C567.175 233.237 564.487 232.298 562.439 230.421C560.476 228.458 559.495 225.898 559.495 222.741C559.495 219.584 560.476 217.066 562.439 215.189C564.487 213.226 567.175 212.245 570.503 212.245C573.831 212.245 576.476 213.226 578.439 215.189C580.487 217.066 581.511 219.584 581.511 222.741C581.511 225.898 580.487 228.458 578.439 230.421C576.476 232.298 573.831 233.237 570.503 233.237ZM561.799 239.253H579.207V303.125H561.799V239.253Z" fill="#022D42"/>
<path d="M622.482 329.109C615.655 329.109 609.98 327.146 605.458 323.221C600.935 319.381 598.418 314.304 597.906 307.989H615.058C615.228 309.866 615.996 311.36 617.362 312.469C618.727 313.664 620.434 314.261 622.482 314.261H634.002C636.647 314.261 638.78 313.152 640.402 310.933C642.108 308.8 642.962 305.984 642.962 302.485V296.469C641.255 298.346 639.164 299.84 636.69 300.949C634.3 302.058 631.996 302.613 629.778 302.613H620.946C613.18 302.613 606.908 300.309 602.13 295.701C597.436 291.093 595.09 285.034 595.09 277.525V264.469C595.09 259.264 596.199 254.698 598.418 250.773C600.636 246.762 603.751 243.69 607.762 241.557C611.772 239.338 616.38 238.229 621.586 238.229H629.01C631.911 238.229 634.727 238.912 637.458 240.277C640.274 241.642 642.535 243.434 644.242 245.653V239.253H660.37V302.485C660.37 307.776 659.26 312.426 657.042 316.437C654.908 320.448 651.836 323.562 647.826 325.781C643.815 328 639.207 329.109 634.002 329.109H622.482ZM630.93 287.893C634.172 287.893 636.903 286.57 639.122 283.925C641.34 281.194 642.62 277.653 642.962 273.301V264.469C642.62 261.056 641.468 258.325 639.506 256.277C637.543 254.229 635.068 253.205 632.082 253.205H623.122C619.964 253.205 617.404 254.357 615.442 256.661C613.479 258.965 612.498 261.994 612.498 265.749V276.245C612.498 279.744 613.394 282.56 615.186 284.693C616.978 286.826 619.282 287.893 622.098 287.893H630.93Z" fill="#022D42"/>
<path d="M687.563 233.237C684.235 233.237 681.547 232.298 679.499 230.421C677.536 228.458 676.555 225.898 676.555 222.741C676.555 219.584 677.536 217.066 679.499 215.189C681.547 213.226 684.235 212.245 687.563 212.245C690.891 212.245 693.536 213.226 695.499 215.189C697.547 217.066 698.571 219.584 698.571 222.741C698.571 225.898 697.547 228.458 695.499 230.421C693.536 232.298 690.891 233.237 687.563 233.237ZM678.859 239.253H696.267V303.125H678.859V239.253Z" fill="#022D42"/>
<path d="M742.614 303.125C735.104 303.125 729.6 301.418 726.102 298.005C722.603 294.592 720.854 289.301 720.854 282.133V254.101H709.59V239.253H721.366V219.925H738.262V239.253H754.902V254.101H738.262V281.365C738.262 283.754 738.688 285.504 739.542 286.613C740.48 287.722 741.931 288.277 743.894 288.277H754.902V303.125H742.614Z" fill="#022D42"/>
<path d="M787.214 304.149C780.558 304.149 775.182 302.485 771.086 299.157C766.99 295.829 764.942 291.434 764.942 285.973V281.237C764.942 275.861 767.075 271.552 771.342 268.309C775.608 264.981 781.24 263.317 788.238 263.317H796.046C798.264 263.317 800.654 263.616 803.214 264.213C805.774 264.81 808.12 265.621 810.254 266.645V259.989C810.254 257.856 809.528 256.149 808.078 254.869C806.712 253.504 804.878 252.821 802.574 252.821H791.566C789.176 252.821 787.256 253.376 785.806 254.485C784.355 255.594 783.63 257.088 783.63 258.965H766.734C766.734 252.736 768.995 247.744 773.518 243.989C778.126 240.149 784.142 238.229 791.566 238.229H802.574C810.083 238.229 816.142 240.234 820.75 244.245C825.358 248.17 827.662 253.418 827.662 259.989V303.125H811.534V295.445C809.486 298.09 806.968 300.224 803.982 301.845C800.995 303.381 798.051 304.149 795.15 304.149H787.214ZM796.43 290.837C799.587 290.837 802.403 290.026 804.878 288.405C807.352 286.784 809.144 284.608 810.254 281.877V279.701C808.888 278.677 806.968 277.866 804.494 277.269C802.104 276.672 799.544 276.373 796.814 276.373H788.75C786.702 276.373 785.038 276.885 783.758 277.909C782.478 278.933 781.838 280.298 781.838 282.005V285.333C781.838 286.954 782.52 288.277 783.886 289.301C785.336 290.325 787.214 290.837 789.518 290.837H796.43Z" fill="#022D42"/>
<path d="M865.036 303.125C857.441 303.125 851.852 301.546 848.268 298.389C844.769 295.146 843.02 290.154 843.02 283.413V213.525H860.428V282.389C860.428 284.437 860.897 285.93 861.836 286.869C862.774 287.808 864.268 288.277 866.316 288.277H873.228V303.125H865.036Z" fill="#022D42"/>
<path d="M893.183 233.237C889.855 233.237 887.167 232.298 885.119 230.421C883.156 228.458 882.175 225.898 882.175 222.741C882.175 219.584 883.156 217.066 885.119 215.189C887.167 213.226 889.855 212.245 893.183 212.245C896.511 212.245 899.156 213.226 901.119 215.189C903.167 217.066 904.191 219.584 904.191 222.741C904.191 225.898 903.167 228.458 901.119 230.421C899.156 232.298 896.511 233.237 893.183 233.237ZM884.479 239.253H901.887V303.125H884.479V239.253Z" fill="#022D42"/>
<path d="M942.986 304.149C935.22 304.149 928.991 302.101 924.298 298.005C919.604 293.909 917.258 288.533 917.258 281.877H934.41C934.41 284.181 935.178 286.058 936.714 287.509C938.335 288.874 940.426 289.557 942.986 289.557H954.506C959.626 289.557 962.186 288.149 962.186 285.333V283.157C962.186 282.304 961.759 281.536 960.906 280.853C960.052 280.085 958.9 279.573 957.45 279.317L935.306 275.477C930.1 274.624 925.962 272.789 922.89 269.973C919.903 267.072 918.41 263.701 918.41 259.861V255.637C918.41 250.176 920.628 245.909 925.066 242.837C929.588 239.765 935.86 238.229 943.882 238.229H953.866C961.034 238.229 966.794 240.149 971.146 243.989C975.583 247.744 977.802 252.736 977.802 258.965H960.65C960.65 257.088 960.01 255.594 958.73 254.485C957.535 253.376 955.914 252.821 953.866 252.821H944.138C938.591 252.821 935.818 254.101 935.818 256.661V258.709C935.818 259.648 936.159 260.458 936.842 261.141C937.61 261.738 938.676 262.165 940.042 262.421L963.338 266.645C968.202 267.498 972.127 269.333 975.114 272.149C978.1 274.88 979.594 277.994 979.594 281.493V286.101C979.594 291.648 977.29 296.042 972.682 299.285C968.159 302.528 962.1 304.149 954.506 304.149H942.986Z" fill="#022D42"/>
<path d="M1012.08 304.149C1005.43 304.149 1000.05 302.485 995.956 299.157C991.86 295.829 989.812 291.434 989.812 285.973V281.237C989.812 275.861 991.945 271.552 996.212 268.309C1000.48 264.981 1006.11 263.317 1013.11 263.317H1020.92C1023.13 263.317 1025.52 263.616 1028.08 264.213C1030.64 264.81 1032.99 265.621 1035.12 266.645V259.989C1035.12 257.856 1034.4 256.149 1032.95 254.869C1031.58 253.504 1029.75 252.821 1027.44 252.821H1016.44C1014.05 252.821 1012.13 253.376 1010.68 254.485C1009.23 255.594 1008.5 257.088 1008.5 258.965H991.604C991.604 252.736 993.865 247.744 998.388 243.989C1003 240.149 1009.01 238.229 1016.44 238.229H1027.44C1034.95 238.229 1041.01 240.234 1045.62 244.245C1050.23 248.17 1052.53 253.418 1052.53 259.989V303.125H1036.4V295.445C1034.36 298.09 1031.84 300.224 1028.85 301.845C1025.87 303.381 1022.92 304.149 1020.02 304.149H1012.08ZM1021.3 290.837C1024.46 290.837 1027.27 290.026 1029.75 288.405C1032.22 286.784 1034.01 284.608 1035.12 281.877V279.701C1033.76 278.677 1031.84 277.866 1029.36 277.269C1026.97 276.672 1024.41 276.373 1021.68 276.373H1013.62C1011.57 276.373 1009.91 276.885 1008.63 277.909C1007.35 278.933 1006.71 280.298 1006.71 282.005V285.333C1006.71 286.954 1007.39 288.277 1008.76 289.301C1010.21 290.325 1012.08 290.837 1014.39 290.837H1021.3Z" fill="#022D42"/>
<path d="M1095.79 303.125C1088.28 303.125 1082.78 301.418 1079.28 298.005C1075.78 294.592 1074.03 289.301 1074.03 282.133V254.101H1062.77V239.253H1074.55V219.925H1091.44V239.253H1108.08V254.101H1091.44V281.365C1091.44 283.754 1091.87 285.504 1092.72 286.613C1093.66 287.722 1095.11 288.277 1097.07 288.277H1108.08V303.125H1095.79Z" fill="#022D42"/>
<path d="M1132.68 233.237C1129.35 233.237 1126.66 232.298 1124.61 230.421C1122.65 228.458 1121.67 225.898 1121.67 222.741C1121.67 219.584 1122.65 217.066 1124.61 215.189C1126.66 213.226 1129.35 212.245 1132.68 212.245C1136.01 212.245 1138.65 213.226 1140.61 215.189C1142.66 217.066 1143.69 219.584 1143.69 222.741C1143.69 225.898 1142.66 228.458 1140.61 230.421C1138.65 232.298 1136.01 233.237 1132.68 233.237ZM1123.97 239.253H1141.38V303.125H1123.97V239.253Z" fill="#022D42"/>
<path d="M1184.53 304.149C1179.15 304.149 1174.37 303.125 1170.19 301.077C1166.1 298.944 1162.9 295.957 1160.59 292.117C1158.37 288.277 1157.26 283.84 1157.26 278.805V263.829C1157.26 258.794 1158.42 254.357 1160.72 250.517C1163.02 246.592 1166.22 243.562 1170.32 241.429C1174.5 239.296 1179.28 238.229 1184.66 238.229H1196.18C1201.55 238.229 1206.29 239.296 1210.38 241.429C1214.57 243.562 1217.81 246.592 1220.11 250.517C1222.42 254.357 1223.57 258.794 1223.57 263.829V278.805C1223.57 283.84 1222.42 288.277 1220.11 292.117C1217.81 295.957 1214.57 298.944 1210.38 301.077C1206.29 303.125 1201.51 304.149 1196.05 304.149H1184.53ZM1195.79 289.173C1198.95 289.173 1201.47 288.106 1203.34 285.973C1205.22 283.754 1206.16 280.896 1206.16 277.397V264.981C1206.16 261.482 1205.22 258.666 1203.34 256.533C1201.47 254.314 1198.99 253.205 1195.92 253.205H1184.91C1181.84 253.205 1179.37 254.314 1177.49 256.533C1175.61 258.666 1174.67 261.482 1174.67 264.981V277.397C1174.67 280.896 1175.61 283.754 1177.49 285.973C1179.37 288.106 1181.8 289.173 1184.78 289.173H1195.79Z" fill="#022D42"/>
<path d="M1237.1 239.253H1253.23V246.933C1255.11 244.288 1257.54 242.197 1260.53 240.661C1263.52 239.04 1266.5 238.229 1269.49 238.229H1277.17C1284 238.229 1289.46 240.362 1293.55 244.629C1297.73 248.896 1299.82 254.528 1299.82 261.525V303.125H1282.42V262.165C1282.42 259.52 1281.69 257.386 1280.24 255.765C1278.88 254.144 1277.08 253.333 1274.86 253.333H1267.18C1264.2 253.333 1261.51 254.442 1259.12 256.661C1256.82 258.794 1255.28 261.61 1254.51 265.109V303.125H1237.1V239.253Z" fill="#022D42"/>
<path d="M1373.9 263.875H1349.57C1345.51 263.875 1342.22 267.164 1342.22 271.22V295.531C1342.22 299.587 1345.51 302.876 1349.57 302.876H1373.9C1377.96 302.876 1381.26 299.587 1381.26 295.531V271.22C1381.26 267.164 1377.96 263.875 1373.9 263.875Z" fill="#ECFFB7"/>
</g>
</g>
<defs>
<clipPath id="clip0_318_14">
<rect width="1382.06" height="393" fill="white" transform="translate(0.161133)"/>
</clipPath>
<clipPath id="clip1_318_14">
<rect width="393.379" height="393" fill="white" transform="translate(0.161133)"/>
</clipPath>
<clipPath id="clip2_318_14">
<rect width="908.677" height="266.75" fill="white" transform="translate(473.541 63.125)"/>
</clipPath>
</defs>
</svg>
