<svg width="169" height="50" viewBox="0 0 169 50" fill="none" xmlns="http://www.w3.org/2000/svg">
<g clip-path="url(#clip0_327_401)">
<g clip-path="url(#clip1_327_401)">
<path d="M42.9477 0.5H5.4301C2.51959 0.5 0.160156 2.85716 0.160156 5.76486V43.2462C0.160156 46.1539 2.51959 48.5111 5.4301 48.5111H42.9477C45.8582 48.5111 48.2176 46.1539 48.2176 43.2462V5.76486C48.2176 2.85716 45.8582 0.5 42.9477 0.5Z" fill="#ECFFB7"/>
<path d="M37.7804 12.5938H34.4261C33.9889 12.5938 33.6313 12.959 33.6313 13.3958V16.6357C33.6313 17.0725 33.2736 17.4298 32.8364 17.4298H29.6887C29.2516 17.4139 28.8939 17.7713 28.8939 18.216V21.3526C28.8939 21.7894 29.2516 22.1467 29.6887 22.1467L32.8523 22.1626C33.2895 22.1626 33.6472 22.52 33.6472 22.9567V31.0327C33.6472 31.4694 33.2895 31.8268 32.8523 31.8268L22.5429 31.8109C22.1057 31.8109 21.748 32.1682 21.748 32.605V35.7417C21.748 36.1784 22.1057 36.5358 22.5429 36.5358H35.4117C37.1684 36.5358 38.5912 35.1143 38.5912 32.9385V13.3878C38.5912 12.9511 38.2256 12.5938 37.7884 12.5938H37.7804Z" fill="#022D42"/>
<path d="M25.7873 12.6094H22.6078C22.1707 12.6094 21.813 12.9667 21.813 13.4035V16.6434C21.813 17.0801 21.4553 17.4375 21.0181 17.4375H12.99C11.2334 17.4375 9.81055 18.8589 9.81055 20.6139V33.3829C9.81055 35.1379 11.2334 36.5593 12.99 36.5593H18.7051C19.1422 36.5593 19.4999 36.202 19.4999 35.7652V32.6286C19.4999 32.1918 19.1422 31.8345 18.7051 31.8345H15.2872C14.85 31.8345 14.4923 31.4771 14.4923 31.0324L14.5241 23.0041C14.5241 22.5674 14.8818 22.2179 15.319 22.21L25.7794 22.1862C26.2165 22.1862 26.5742 21.8288 26.5742 21.3921V13.4035C26.5742 12.9667 26.2165 12.6094 25.7794 12.6094H25.7873Z" fill="#022D42"/>
<path d="M26.0491 24.5762H22.3451C22.0509 24.5762 21.8125 24.8144 21.8125 25.1082V28.8087C21.8125 29.1026 22.0509 29.3408 22.3451 29.3408H26.0491C26.3432 29.3408 26.5817 29.1026 26.5817 28.8087V25.1082C26.5817 24.8144 26.3432 24.5762 26.0491 24.5762Z" fill="#022D42"/>
</g>
<g clip-path="url(#clip2_327_401)">
<path d="M151.271 30.4093H153.242V31.3475C153.471 31.0243 153.768 30.7689 154.133 30.5813C154.498 30.3832 154.863 30.2842 155.228 30.2842H156.166C157 30.2842 157.667 30.5448 158.167 31.066C158.678 31.5873 158.934 32.2753 158.934 33.1302V38.2122H156.807V33.2083C156.807 32.8852 156.718 32.6245 156.541 32.4265C156.374 32.2284 156.156 32.1294 155.884 32.1294H154.946C154.581 32.1294 154.253 32.2649 153.961 32.5359C153.68 32.7966 153.492 33.1406 153.398 33.568V38.2122H151.271V30.4093Z" fill="#022D42"/>
<path d="M144.848 38.3373C144.192 38.3373 143.608 38.2122 143.097 37.962C142.597 37.7014 142.206 37.3366 141.924 36.8674C141.653 36.3983 141.518 35.8562 141.518 35.2412V33.4116C141.518 32.7966 141.658 32.2545 141.94 31.7854C142.221 31.3058 142.612 30.9357 143.113 30.6751C143.623 30.4145 144.207 30.2842 144.864 30.2842H146.271C146.928 30.2842 147.507 30.4145 148.007 30.6751C148.518 30.9357 148.914 31.3058 149.195 31.7854C149.477 32.2545 149.618 32.7966 149.618 33.4116V35.2412C149.618 35.8562 149.477 36.3983 149.195 36.8674C148.914 37.3366 148.518 37.7014 148.007 37.962C147.507 38.2122 146.923 38.3373 146.256 38.3373H144.848ZM146.224 36.5078C146.61 36.5078 146.918 36.3775 147.147 36.1169C147.376 35.8458 147.491 35.4966 147.491 35.0692V33.5524C147.491 33.1249 147.376 32.7809 147.147 32.5203C146.918 32.2493 146.615 32.1137 146.24 32.1137H144.895C144.52 32.1137 144.218 32.2493 143.988 32.5203C143.759 32.7809 143.644 33.1249 143.644 33.5524V35.0692C143.644 35.4966 143.759 35.8458 143.988 36.1169C144.218 36.3775 144.515 36.5078 144.88 36.5078H146.224Z" fill="#022D42"/>
<path d="M138.513 29.6739C138.106 29.6739 137.778 29.5592 137.528 29.3299C137.288 29.0901 137.168 28.7773 137.168 28.3916C137.168 28.0059 137.288 27.6984 137.528 27.469C137.778 27.2293 138.106 27.1094 138.513 27.1094C138.919 27.1094 139.243 27.2293 139.482 27.469C139.732 27.6984 139.858 28.0059 139.858 28.3916C139.858 28.7773 139.732 29.0901 139.482 29.3299C139.243 29.5592 138.919 29.6739 138.513 29.6739ZM137.449 30.4088H139.576V38.2118H137.449V30.4088Z" fill="#022D42"/>
<path d="M134.007 38.212C133.09 38.212 132.417 38.0035 131.99 37.5865C131.562 37.1696 131.349 36.5232 131.349 35.6475V32.223H129.973V30.4091H131.411V28.0479H133.475V30.4091H135.508V32.223H133.475V35.5537C133.475 35.8456 133.528 36.0593 133.632 36.1948C133.746 36.3304 133.924 36.3981 134.163 36.3981H135.508V38.212H134.007Z" fill="#022D42"/>
<path d="M123.781 38.3373C122.968 38.3373 122.312 38.1341 121.811 37.7275C121.311 37.3209 121.061 36.784 121.061 36.1169V35.5383C121.061 34.8815 121.321 34.3551 121.842 33.9589C122.364 33.5524 123.052 33.3491 123.907 33.3491H124.86C125.131 33.3491 125.423 33.3856 125.736 33.4585C126.049 33.5315 126.335 33.6305 126.596 33.7556V32.9425C126.596 32.6819 126.508 32.4734 126.33 32.317C126.163 32.1502 125.939 32.0668 125.658 32.0668H124.313C124.021 32.0668 123.787 32.1346 123.609 32.2701C123.432 32.4056 123.344 32.5881 123.344 32.8174H121.279C121.279 32.0564 121.556 31.4465 122.108 30.9879C122.671 30.5187 123.406 30.2842 124.313 30.2842H125.658C126.575 30.2842 127.315 30.5292 127.878 31.0191C128.441 31.4987 128.723 32.1398 128.723 32.9425V38.2122H126.752V37.274C126.502 37.5972 126.195 37.8578 125.83 38.0559C125.465 38.2435 125.105 38.3373 124.751 38.3373H123.781ZM124.907 36.7111C125.293 36.7111 125.637 36.612 125.939 36.414C126.242 36.2159 126.461 35.9501 126.596 35.6165V35.3506C126.429 35.2255 126.195 35.1265 125.892 35.0535C125.601 34.9806 125.288 34.9441 124.954 34.9441H123.969C123.719 34.9441 123.516 35.0066 123.359 35.1317C123.203 35.2568 123.125 35.4236 123.125 35.6321V36.0387C123.125 36.2367 123.208 36.3983 123.375 36.5234C123.552 36.6485 123.781 36.7111 124.063 36.7111H124.907Z" fill="#022D42"/>
<path d="M115.34 38.3373C114.392 38.3373 113.631 38.0871 113.057 37.5868C112.484 37.0864 112.197 36.4296 112.197 35.6165H114.293C114.293 35.8979 114.386 36.1273 114.574 36.3045C114.772 36.4713 115.028 36.5547 115.34 36.5547H116.748C117.373 36.5547 117.686 36.3827 117.686 36.0387V35.7728C117.686 35.6686 117.634 35.5748 117.53 35.4914C117.425 35.3975 117.285 35.335 117.107 35.3037L114.402 34.8346C113.766 34.7304 113.261 34.5062 112.885 34.1622C112.52 33.8078 112.338 33.396 112.338 32.9269V32.4108C112.338 31.7437 112.609 31.2224 113.151 30.8471C113.704 30.4718 114.47 30.2842 115.45 30.2842H116.67C117.545 30.2842 118.249 30.5187 118.781 30.9879C119.323 31.4465 119.594 32.0564 119.594 32.8174H117.498C117.498 32.5881 117.42 32.4056 117.264 32.2701C117.118 32.1346 116.92 32.0668 116.67 32.0668H115.481C114.803 32.0668 114.465 32.2232 114.465 32.5359V32.7861C114.465 32.9008 114.506 32.9998 114.59 33.0832C114.684 33.1562 114.814 33.2083 114.981 33.2396L117.827 33.7556C118.421 33.8599 118.9 34.084 119.265 34.428C119.63 34.7616 119.813 35.1421 119.813 35.5696V36.1325C119.813 36.8101 119.531 37.347 118.968 37.7431C118.416 38.1393 117.675 38.3373 116.748 38.3373H115.34Z" fill="#022D42"/>
<path d="M109.255 29.6739C108.848 29.6739 108.52 29.5592 108.27 29.3299C108.03 29.0901 107.91 28.7773 107.91 28.3916C107.91 28.0059 108.03 27.6984 108.27 27.469C108.52 27.2293 108.848 27.1094 109.255 27.1094C109.662 27.1094 109.985 27.2293 110.224 27.469C110.475 27.6984 110.6 28.0059 110.6 28.3916C110.6 28.7773 110.475 29.0901 110.224 29.3299C109.985 29.5592 109.662 29.6739 109.255 29.6739ZM108.192 30.4088H110.318V38.2118H108.192V30.4088Z" fill="#022D42"/>
<path d="M105.817 38.2117C104.889 38.2117 104.206 38.0188 103.768 37.6331C103.341 37.2369 103.127 36.6271 103.127 35.8035V27.2656H105.254V35.6784C105.254 35.9286 105.311 36.1111 105.426 36.2257C105.54 36.3404 105.723 36.3978 105.973 36.3978H106.817V38.2117H105.817Z" fill="#022D42"/>
<path d="M96.3107 38.3373C95.4976 38.3373 94.8408 38.1341 94.3404 37.7275C93.84 37.3209 93.5898 36.784 93.5898 36.1169V35.5383C93.5898 34.8815 93.8505 34.3551 94.3717 33.9589C94.8929 33.5524 95.581 33.3491 96.4358 33.3491H97.3897C97.6607 33.3491 97.9526 33.3856 98.2654 33.4585C98.5781 33.5315 98.8648 33.6305 99.1254 33.7556V32.9425C99.1254 32.6819 99.0368 32.4734 98.8596 32.317C98.6928 32.1502 98.4687 32.0668 98.1872 32.0668H96.8424C96.5505 32.0668 96.3159 32.1346 96.1387 32.2701C95.9615 32.4056 95.8729 32.5881 95.8729 32.8174H93.8088C93.8088 32.0564 94.085 31.4465 94.6375 30.9879C95.2005 30.5187 95.9354 30.2842 96.8424 30.2842H98.1872C99.1046 30.2842 99.8447 30.5292 100.408 31.0191C100.971 31.4987 101.252 32.1398 101.252 32.9425V38.2122H99.2818V37.274C99.0316 37.5972 98.7241 37.8578 98.3592 38.0559C97.9943 38.2435 97.6347 38.3373 97.2802 38.3373H96.3107ZM97.4366 36.7111C97.8223 36.7111 98.1663 36.612 98.4687 36.414C98.771 36.2159 98.9899 35.9501 99.1254 35.6165V35.3506C98.9586 35.2255 98.7241 35.1265 98.4217 35.0535C98.1298 34.9806 97.8171 34.9441 97.4835 34.9441H96.4984C96.2482 34.9441 96.0449 35.0066 95.8885 35.1317C95.7321 35.2568 95.654 35.4236 95.654 35.6321V36.0387C95.654 36.2367 95.7374 36.3983 95.9042 36.5234C96.0814 36.6485 96.3107 36.7111 96.5922 36.7111H97.4366Z" fill="#022D42"/>
<path d="M90.8606 38.212C89.9432 38.212 89.2708 38.0035 88.8434 37.5865C88.416 37.1696 88.2022 36.5232 88.2022 35.6475V32.223H86.8262V30.4091H88.2648V28.0479H90.3289V30.4091H92.3617V32.223H90.3289V35.5537C90.3289 35.8456 90.381 36.0593 90.4853 36.1948C90.6 36.3304 90.7772 36.3981 91.0169 36.3981H92.3617V38.212H90.8606Z" fill="#022D42"/>
<path d="M84.1358 29.6739C83.7292 29.6739 83.4009 29.5592 83.1507 29.3299C82.9109 29.0901 82.791 28.7773 82.791 28.3916C82.791 28.0059 82.9109 27.6984 83.1507 27.469C83.4009 27.2293 83.7292 27.1094 84.1358 27.1094C84.5424 27.1094 84.8656 27.2293 85.1053 27.469C85.3555 27.6984 85.4806 28.0059 85.4806 28.3916C85.4806 28.7773 85.3555 29.0901 85.1053 29.3299C84.8656 29.5592 84.5424 29.6739 84.1358 29.6739ZM83.0725 30.4088H85.1991V38.2118H83.0725V30.4088Z" fill="#022D42"/>
<path d="M76.1862 41.3866C75.3522 41.3866 74.659 41.1468 74.1065 40.6673C73.5539 40.1982 73.2464 39.5779 73.1839 38.8065H75.2792C75.3001 39.0358 75.3939 39.2182 75.5607 39.3538C75.7275 39.4997 75.936 39.5727 76.1862 39.5727H77.5936C77.9167 39.5727 78.1773 39.4372 78.3754 39.1661C78.5839 38.9055 78.6882 38.5615 78.6882 38.1341V37.3991C78.4797 37.6285 78.2243 37.8109 77.9219 37.9464C77.63 38.0819 77.3486 38.1497 77.0775 38.1497H75.9986C75.0499 38.1497 74.2837 37.8682 73.6999 37.3053C73.1265 36.7423 72.8398 36.0022 72.8398 35.0848V33.4898C72.8398 32.8539 72.9754 32.2962 73.2464 31.8166C73.5175 31.3267 73.898 30.9514 74.3879 30.6907C74.8779 30.4197 75.4408 30.2842 76.0767 30.2842H76.9837C77.3381 30.2842 77.6822 30.3676 78.0158 30.5344C78.3598 30.7012 78.636 30.9201 78.8445 31.1911V30.4093H80.8148V38.1341C80.8148 38.7804 80.6793 39.3485 80.4082 39.8385C80.1476 40.3285 79.7723 40.709 79.2824 40.98C78.7924 41.2511 78.2295 41.3866 77.5936 41.3866H76.1862ZM77.2183 36.3514C77.6144 36.3514 77.948 36.1898 78.219 35.8667C78.4901 35.5331 78.6465 35.1004 78.6882 34.5688V33.4898C78.6465 33.0728 78.5057 32.7392 78.266 32.489C78.0262 32.2388 77.7239 32.1137 77.359 32.1137H76.2644C75.8787 32.1137 75.5659 32.2545 75.3262 32.5359C75.0864 32.8174 74.9665 33.1875 74.9665 33.6462V34.9284C74.9665 35.3558 75.076 35.6999 75.2949 35.9605C75.5138 36.2211 75.7953 36.3514 76.1393 36.3514H77.2183Z" fill="#022D42"/>
<path d="M69.835 29.6739C69.4285 29.6739 69.1001 29.5592 68.8499 29.3299C68.6101 29.0901 68.4902 28.7773 68.4902 28.3916C68.4902 28.0059 68.6101 27.6984 68.8499 27.469C69.1001 27.2293 69.4285 27.1094 69.835 27.1094C70.2416 27.1094 70.5648 27.2293 70.8045 27.469C71.0547 27.6984 71.1798 28.0059 71.1798 28.3916C71.1798 28.7773 71.0547 29.0901 70.8045 29.3299C70.5648 29.5592 70.2416 29.6739 69.835 29.6739ZM68.7717 30.4088H70.8984V38.2118H68.7717V30.4088Z" fill="#022D42"/>
<path d="M61.6802 38.3368C60.7523 38.3368 60.0018 38.0553 59.4284 37.4924C58.8655 36.9294 58.584 36.1893 58.584 35.2719V33.4892C58.584 32.8533 58.7195 32.2956 58.9906 31.8161C59.2616 31.3261 59.6421 30.9508 60.1321 30.6902C60.622 30.4191 61.1902 30.2836 61.8365 30.2836H62.6966C62.9989 30.2836 63.3064 30.3514 63.6192 30.4869C63.9319 30.612 64.1925 30.784 64.401 31.0029V27.2656H66.5277V38.2117H64.5574V37.1796C64.3489 37.5236 64.0674 37.8051 63.713 38.024C63.3585 38.2325 62.9885 38.3368 62.6027 38.3368H61.6802ZM62.8373 36.5072C63.2647 36.5072 63.6192 36.3561 63.9006 36.0537C64.1925 35.741 64.3593 35.3292 64.401 34.8184V33.458C64.3281 33.0514 64.1665 32.7282 63.9163 32.4885C63.6765 32.2383 63.3898 32.1132 63.0562 32.1132H62.1024C61.6854 32.1132 61.3466 32.2539 61.0859 32.5354C60.8357 32.8168 60.7106 33.1869 60.7106 33.6456V35.1155C60.7106 35.5325 60.8253 35.8713 61.0547 36.1319C61.284 36.3821 61.5811 36.5072 61.946 36.5072H62.8373Z" fill="#022D42"/>
<path d="M166.806 22.212C165.889 22.212 165.216 22.0035 164.789 21.5865C164.361 21.1696 164.148 20.5232 164.148 19.6475V16.223H162.771V14.4091H164.21V12.0479H166.274V14.4091H168.307V16.223H166.274V19.5537C166.274 19.8456 166.326 20.0593 166.431 20.1948C166.545 20.3304 166.722 20.3981 166.962 20.3981H168.307V22.212H166.806Z" fill="#022D42"/>
<path d="M157.171 22.3373C156.514 22.3373 155.93 22.2175 155.419 21.9777C154.919 21.7275 154.528 21.3835 154.246 20.9456C153.965 20.4974 153.824 19.9865 153.824 19.4132V17.396C153.824 16.7809 153.965 16.2388 154.246 15.7697C154.528 15.3006 154.919 14.9357 155.419 14.6751C155.93 14.4145 156.514 14.2842 157.171 14.2842H158.422C159.422 14.2842 160.225 14.5656 160.83 15.1286C161.434 15.6915 161.737 16.4421 161.737 17.3803V19.0379H155.951V19.4132C155.951 19.7572 156.06 20.0335 156.279 20.242C156.498 20.4505 156.795 20.5547 157.171 20.5547H158.39C158.755 20.5547 159.047 20.4765 159.266 20.3201C159.495 20.1533 159.61 19.9396 159.61 19.679H161.705C161.705 20.2003 161.565 20.6642 161.283 21.0707C161.002 21.4773 160.606 21.79 160.095 22.009C159.594 22.2279 159.016 22.3373 158.359 22.3373H157.171ZM159.641 17.5054V17.3803C159.641 16.9738 159.532 16.6506 159.313 16.4108C159.094 16.1606 158.802 16.0355 158.437 16.0355H157.171C156.795 16.0355 156.493 16.1659 156.264 16.4265C156.034 16.6871 155.92 17.0311 155.92 17.4585V17.5054H159.641Z" fill="#022D42"/>
<path d="M139.631 14.4093H141.601V15.3475C141.83 15.0243 142.128 14.7689 142.492 14.5813C142.857 14.3832 143.222 14.2842 143.587 14.2842H144.525C145.359 14.2842 146.026 14.5448 146.527 15.066C147.038 15.5873 147.293 16.2753 147.293 17.1302V22.2122H145.166V17.2083C145.166 16.8852 145.078 16.6245 144.901 16.4265C144.734 16.2284 144.515 16.1294 144.244 16.1294H143.306C142.941 16.1294 142.612 16.2649 142.32 16.5359C142.039 16.7966 141.851 17.1406 141.758 17.568V22.2122H139.631V14.4093Z" fill="#022D42"/>
<path d="M133.051 22.3373C132.395 22.3373 131.811 22.2122 131.3 21.962C130.8 21.7014 130.409 21.3366 130.127 20.8674C129.856 20.3983 129.721 19.8562 129.721 19.2412V17.4116C129.721 16.7966 129.861 16.2545 130.143 15.7854C130.424 15.3058 130.815 14.9357 131.316 14.6751C131.827 14.4145 132.41 14.2842 133.067 14.2842H134.474C135.131 14.2842 135.71 14.4145 136.21 14.6751C136.721 14.9357 137.117 15.3058 137.399 15.7854C137.68 16.2545 137.821 16.7966 137.821 17.4116V19.2412C137.821 19.8562 137.68 20.3983 137.399 20.8674C137.117 21.3366 136.721 21.7014 136.21 21.962C135.71 22.2122 135.126 22.3373 134.459 22.3373H133.051ZM134.427 20.5078C134.813 20.5078 135.121 20.3775 135.35 20.1169C135.579 19.8458 135.694 19.4966 135.694 19.0692V17.5524C135.694 17.1249 135.579 16.7809 135.35 16.5203C135.121 16.2493 134.818 16.1137 134.443 16.1137H133.098C132.723 16.1137 132.421 16.2493 132.191 16.5203C131.962 16.7809 131.847 17.1249 131.847 17.5524V19.0692C131.847 19.4966 131.962 19.8458 132.191 20.1169C132.421 20.3775 132.718 20.5078 133.083 20.5078H134.427Z" fill="#022D42"/>
<path d="M126.56 13.6739C126.153 13.6739 125.825 13.5592 125.575 13.3299C125.335 13.0901 125.215 12.7773 125.215 12.3916C125.215 12.0059 125.335 11.6984 125.575 11.469C125.825 11.2293 126.153 11.1094 126.56 11.1094C126.966 11.1094 127.289 11.2293 127.529 11.469C127.779 11.6984 127.904 12.0059 127.904 12.3916C127.904 12.7773 127.779 13.0901 127.529 13.3299C127.289 13.5592 126.966 13.6739 126.56 13.6739ZM125.496 14.4088H127.623V22.2118H125.496V14.4088Z" fill="#022D42"/>
<path d="M121.898 22.212C120.98 22.212 120.308 22.0035 119.88 21.5865C119.453 21.1696 119.239 20.5232 119.239 19.6475V16.223H117.863V14.4091H119.302V12.0479H121.366V14.4091H123.399V16.223H121.366V19.5537C121.366 19.8456 121.418 20.0593 121.522 20.1948C121.637 20.3304 121.814 20.3981 122.054 20.3981H123.399V22.212H121.898Z" fill="#022D42"/>
<path d="M112.505 22.3373C111.848 22.3373 111.264 22.207 110.753 21.9464C110.253 21.6858 109.862 21.3209 109.58 20.8518C109.309 20.3827 109.174 19.8406 109.174 19.2255V17.396C109.174 16.7809 109.309 16.2388 109.58 15.7697C109.862 15.3006 110.253 14.9357 110.753 14.6751C111.254 14.4145 111.832 14.2842 112.489 14.2842H113.724C114.35 14.2842 114.902 14.4093 115.382 14.6595C115.861 14.9097 116.231 15.2641 116.492 15.7228C116.753 16.1711 116.883 16.6923 116.883 17.2865H114.772C114.772 16.9321 114.673 16.6506 114.475 16.4421C114.287 16.2232 114.037 16.1137 113.724 16.1137H112.52C112.155 16.1137 111.858 16.2493 111.629 16.5203C111.41 16.7809 111.3 17.1249 111.3 17.5524V19.0692C111.3 19.4966 111.415 19.8458 111.645 20.1169C111.874 20.3775 112.171 20.5078 112.536 20.5078H113.74C114.073 20.5078 114.339 20.3879 114.537 20.1481C114.746 19.9084 114.85 19.5904 114.85 19.1943H116.961C116.961 20.1429 116.664 20.9039 116.07 21.4773C115.486 22.0507 114.709 22.3373 113.74 22.3373H112.505Z" fill="#022D42"/>
<path d="M102.471 22.3372C101.647 22.3372 100.985 22.061 100.485 21.5085C99.9846 20.9455 99.7344 20.2106 99.7344 19.3036V14.4092H101.861V19.3349C101.861 19.6789 101.944 19.9604 102.111 20.1793C102.288 20.3878 102.518 20.4921 102.799 20.4921H103.706C104.05 20.4921 104.363 20.3513 104.644 20.0698C104.926 19.778 105.124 19.3974 105.239 18.9283V14.4092H107.365V22.2121H105.395V21.2114C105.155 21.545 104.858 21.816 104.504 22.0245C104.16 22.233 103.826 22.3372 103.503 22.3372H102.471Z" fill="#022D42"/>
<path d="M93.5293 14.4092H95.4996V15.41C95.6977 15.1077 95.9791 14.8627 96.344 14.675C96.7193 14.477 97.1102 14.3779 97.5168 14.3779H98.5801V16.2231H97.5168C96.9643 16.2231 96.516 16.3899 96.172 16.7235C95.828 17.0571 95.656 17.4845 95.656 18.0058V22.2122H93.5293V14.4092Z" fill="#022D42"/>
<path d="M90.2121 22.212C89.2948 22.212 88.6224 22.0035 88.1949 21.5865C87.7675 21.1696 87.5538 20.5232 87.5538 19.6475V16.223H86.1777V14.4091H87.6164V12.0479H89.6805V14.4091H91.7133V16.223H89.6805V19.5537C89.6805 19.8456 89.7326 20.0593 89.8368 20.1948C89.9515 20.3304 90.1287 20.3981 90.3685 20.3981H91.7133V22.212H90.2121Z" fill="#022D42"/>
<path d="M80.7681 22.3373C79.8194 22.3373 79.0584 22.0871 78.485 21.5868C77.9117 21.0864 77.625 20.4296 77.625 19.6165H79.7204C79.7204 19.8979 79.8142 20.1273 80.0019 20.3045C80.1999 20.4713 80.4553 20.5547 80.7681 20.5547H82.1754C82.8009 20.5547 83.1137 20.3827 83.1137 20.0387V19.7728C83.1137 19.6686 83.0615 19.5748 82.9573 19.4914C82.853 19.3975 82.7123 19.335 82.5351 19.3037L79.8298 18.8346C79.1939 18.7304 78.6883 18.5062 78.313 18.1622C77.9482 17.8078 77.7657 17.396 77.7657 16.9269V16.4108C77.7657 15.7437 78.0368 15.2224 78.5789 14.8471C79.1314 14.4718 79.8976 14.2842 80.8775 14.2842H82.0972C82.9729 14.2842 83.6766 14.5187 84.2083 14.9879C84.7504 15.4465 85.0214 16.0564 85.0214 16.8174H82.926C82.926 16.5881 82.8478 16.4056 82.6915 16.2701C82.5455 16.1346 82.3474 16.0668 82.0972 16.0668H80.9088C80.2312 16.0668 79.8924 16.2232 79.8924 16.5359V16.7861C79.8924 16.9008 79.9341 16.9998 80.0175 17.0832C80.1113 17.1562 80.2416 17.2083 80.4084 17.2396L83.2544 17.7556C83.8486 17.8599 84.3281 18.084 84.693 18.428C85.0579 18.7616 85.2403 19.1421 85.2403 19.5696V20.1325C85.2403 20.8101 84.9588 21.347 84.3959 21.7431C83.8434 22.1393 83.1032 22.3373 82.1754 22.3373H80.7681Z" fill="#022D42"/>
<path d="M71.6803 22.3373C71.0236 22.3373 70.4398 22.2175 69.929 21.9777C69.4286 21.7275 69.0377 21.3835 68.7562 20.9456C68.4747 20.4974 68.334 19.9865 68.334 19.4132V17.396C68.334 16.7809 68.4747 16.2388 68.7562 15.7697C69.0377 15.3006 69.4286 14.9357 69.929 14.6751C70.4398 14.4145 71.0236 14.2842 71.6803 14.2842H72.9313C73.9321 14.2842 74.7348 14.5656 75.3395 15.1286C75.9441 15.6915 76.2464 16.4421 76.2464 17.3803V19.0379H70.4606V19.4132C70.4606 19.7572 70.5701 20.0335 70.789 20.242C71.0079 20.4505 71.3051 20.5547 71.6803 20.5547H72.9C73.2649 20.5547 73.5568 20.4765 73.7757 20.3201C74.0051 20.1533 74.1198 19.9396 74.1198 19.679H76.2151C76.2151 20.2003 76.0744 20.6642 75.7929 21.0707C75.5115 21.4773 75.1153 21.79 74.6045 22.009C74.1041 22.2279 73.5255 22.3373 72.8688 22.3373H71.6803ZM74.151 17.5054V17.3803C74.151 16.9738 74.0416 16.6506 73.8226 16.4108C73.6037 16.1606 73.3118 16.0355 72.947 16.0355H71.6803C71.3051 16.0355 71.0027 16.1659 70.7734 16.4265C70.544 16.6871 70.4294 17.0311 70.4294 17.4585V17.5054H74.151Z" fill="#022D42"/>
<path d="M61.6802 22.3368C60.7523 22.3368 60.0018 22.0553 59.4284 21.4924C58.8655 20.9294 58.584 20.1893 58.584 19.2719V17.4892C58.584 16.8533 58.7195 16.2956 58.9906 15.8161C59.2616 15.3261 59.6421 14.9508 60.1321 14.6902C60.622 14.4191 61.1902 14.2836 61.8365 14.2836H62.6966C62.9989 14.2836 63.3064 14.3514 63.6192 14.4869C63.9319 14.612 64.1925 14.784 64.401 15.0029V11.2656H66.5277V22.2117H64.5574V21.1796C64.3489 21.5236 64.0674 21.8051 63.713 22.024C63.3585 22.2325 62.9885 22.3368 62.6027 22.3368H61.6802ZM62.8373 20.5072C63.2647 20.5072 63.6192 20.3561 63.9006 20.0537C64.1925 19.741 64.3593 19.3292 64.401 18.8184V17.458C64.3281 17.0514 64.1665 16.7282 63.9163 16.4885C63.6765 16.2383 63.3898 16.1132 63.0562 16.1132H62.1024C61.6854 16.1132 61.3466 16.2539 61.0859 16.5354C60.8357 16.8168 60.7106 17.1869 60.7106 17.6456V19.1155C60.7106 19.5325 60.8253 19.8713 61.0547 20.1319C61.284 20.3821 61.5811 20.5072 61.946 20.5072H62.8373Z" fill="#022D42"/>
<path d="M167.984 32.7363H165.011C164.515 32.7363 164.113 33.1381 164.113 33.6337V36.6036C164.113 37.0992 164.515 37.5009 165.011 37.5009H167.984C168.48 37.5009 168.882 37.0992 168.882 36.6036V33.6337C168.882 33.1381 168.48 32.7363 167.984 32.7363Z" fill="#ECFFB7"/>
</g>
</g>
<defs>
<clipPath id="clip0_327_401">
<rect width="169" height="49" fill="white" transform="translate(0 0.5)"/>
</clipPath>
<clipPath id="clip1_327_401">
<rect width="48.0574" height="48.0111" fill="white" transform="translate(0.160156 0.5)"/>
</clipPath>
<clipPath id="clip2_327_401">
<rect width="111" height="31" fill="white" transform="translate(58 10.5)"/>
</clipPath>
</defs>
</svg>
