<svg width="48" height="48" viewBox="0 0 48 48" fill="none" xmlns="http://www.w3.org/2000/svg">
<rect width="48" height="48" rx="8" fill="#ECFFB7"/>
<path d="M13.8248 24.72C13.8248 20.18 16.2648 17.1 20.0048 17.1C23.7448 17.1 26.2048 20.18 26.2048 24.72C26.2048 29.24 23.8848 32.26 20.0048 32.26C16.1248 32.26 13.8248 29.24 13.8248 24.72ZM16.3448 24.72C16.3448 28.1 17.7048 30 20.0048 30C22.3248 30 23.6848 28.1 23.6848 24.72C23.6848 21.26 22.3248 19.36 20.0048 19.36C17.7048 19.36 16.3448 21.26 16.3448 24.72ZM30.9464 19.68H27.7464V17.38H33.4064V32H30.9464V19.68Z" fill="#022D42"/>
</svg>
