<svg width="48" height="48" viewBox="0 0 48 48" fill="none" xmlns="http://www.w3.org/2000/svg">
<rect width="48" height="48" rx="8" fill="#ECFFB7"/>
<path d="M11.3444 24.72C11.3444 20.18 13.7844 17.1 17.5244 17.1C21.2644 17.1 23.7244 20.18 23.7244 24.72C23.7244 29.24 21.4044 32.26 17.5244 32.26C13.6444 32.26 11.3444 29.24 11.3444 24.72ZM13.8644 24.72C13.8644 28.1 15.2244 30 17.5244 30C19.8444 30 21.2044 28.1 21.2044 24.72C21.2044 21.26 19.8444 19.36 17.5244 19.36C15.2244 19.36 13.8644 21.26 13.8644 24.72ZM36.7659 29.22H34.9859V32H32.5659V29.22H25.1459V26.98L31.7659 17.38H34.9859V26.98H36.7659V29.22ZM27.8659 26.98H32.5659V20.14L27.8659 26.98Z" fill="#022D42"/>
</svg>
