<svg width="48" height="48" viewBox="0 0 48 48" fill="none" xmlns="http://www.w3.org/2000/svg">
<rect width="48" height="48" rx="8" fill="#ECFFB7"/>
<path d="M11.8131 24.72C11.8131 20.18 14.2531 17.1 17.9931 17.1C21.7331 17.1 24.1931 20.18 24.1931 24.72C24.1931 29.24 21.8731 32.26 17.9931 32.26C14.1131 32.26 11.8131 29.24 11.8131 24.72ZM14.3331 24.72C14.3331 28.1 15.6931 30 17.9931 30C20.3131 30 21.6731 28.1 21.6731 24.72C21.6731 21.26 20.3131 19.36 17.9931 19.36C15.6931 19.36 14.3331 21.26 14.3331 24.72ZM30.9547 32.24C27.8947 32.24 25.8747 30.28 25.8747 27.32H28.4147C28.4147 28.98 29.3947 29.96 31.0147 29.96C32.7347 29.96 33.8347 28.84 33.8347 27.06C33.8347 25.36 32.8147 24.2 31.0547 24.2C29.9347 24.2 28.9147 24.76 28.3947 25.52L26.1347 25.04L27.9347 17.38H35.5547V19.74H29.7747L28.9947 22.78C29.6947 22.32 30.5747 22.06 31.5747 22.06C34.4947 22.06 36.4347 24.04 36.4347 26.92C36.4347 30.08 34.2147 32.24 30.9547 32.24Z" fill="#022D42"/>
</svg>
