<svg width="97" height="97" viewBox="0 0 97 97" fill="none" xmlns="http://www.w3.org/2000/svg">
<g clip-path="url(#clip0_1225_18895)">
<path d="M85.9727 0.959473H11.0273C5.21323 0.959473 0.5 5.6727 0.5 11.4868V86.4322C0.5 92.2463 5.21323 96.9595 11.0273 96.9595H85.9727C91.7868 96.9595 96.5 92.2463 96.5 86.4322V11.4868C96.5 5.6727 91.7868 0.959473 85.9727 0.959473Z" fill="#ECFFB7"/>
<path d="M75.6515 25.1418H68.9508C68.0775 25.1418 67.363 25.8722 67.363 26.7455V33.2239C67.363 34.0972 66.6485 34.8117 65.7752 34.8117H59.4874C58.6141 34.78 57.8996 35.4945 57.8996 36.3837V42.6556C57.8996 43.5289 58.6141 44.2434 59.4874 44.2434L65.8069 44.2752C66.6802 44.2752 67.3948 44.9897 67.3948 45.863V62.0112C67.3948 62.8845 66.6802 63.599 65.8069 63.599L45.2128 63.5672C44.3395 63.5672 43.625 64.2818 43.625 65.1551V71.427C43.625 72.3003 44.3395 73.0148 45.2128 73.0148H70.9197C74.4288 73.0148 77.271 70.1726 77.271 65.822V26.7297C77.271 25.8564 76.5406 25.1418 75.6673 25.1418H75.6515Z" fill="#022D42"/>
<path d="M51.6927 25.1731H45.3414C44.4681 25.1731 43.7535 25.8876 43.7535 26.7609V33.2393C43.7535 34.1126 43.039 34.8271 42.1657 34.8271H26.1287C22.6196 34.8271 19.7773 37.6693 19.7773 41.1784V66.7106C19.7773 70.2197 22.6196 73.0619 26.1287 73.0619H37.5451C38.4184 73.0619 39.133 72.3474 39.133 71.4741V65.2022C39.133 64.3289 38.4184 63.6144 37.5451 63.6144H30.7175C29.8442 63.6144 29.1296 62.8999 29.1296 62.0107L29.1932 45.9577C29.1932 45.0844 29.9077 44.3858 30.781 44.3699L51.6768 44.3223C52.5501 44.3223 53.2646 43.6078 53.2646 42.7345V26.7609C53.2646 25.8876 52.5501 25.1731 51.6768 25.1731H51.6927Z" fill="#022D42"/>
<path d="M52.217 49.1018H44.8178C44.2302 49.1018 43.7539 49.5781 43.7539 50.1657V57.5649C43.7539 58.1525 44.2302 58.6288 44.8178 58.6288H52.217C52.8046 58.6288 53.2809 58.1525 53.2809 57.5649V50.1657C53.2809 49.5781 52.8046 49.1018 52.217 49.1018Z" fill="#022D42"/>
</g>
<defs>
<clipPath id="clip0_1225_18895">
<rect width="96" height="96" fill="white" transform="translate(0.5 0.959473)"/>
</clipPath>
</defs>
</svg>
